<?xml version="1.0" encoding="UTF-8" standalone="no"?>
<!-- Created with Inkscape (http://www.inkscape.org/) -->

<svg
   width="16.657mm"
   height="17.011591mm"
   viewBox="0 0 16.657 17.011591"
   version="1.1"
   id="svg1"
   inkscape:version="1.3 (0e150ed, 2023-07-21)"
   sodipodi:docname="SaveApp.svg"
   xmlns:inkscape="http://www.inkscape.org/namespaces/inkscape"
   xmlns:sodipodi="http://sodipodi.sourceforge.net/DTD/sodipodi-0.dtd"
   xmlns="http://www.w3.org/2000/svg"
   xmlns:svg="http://www.w3.org/2000/svg">
  <sodipodi:namedview
     id="namedview1"
     pagecolor="#ffffff"
     bordercolor="#000000"
     borderopacity="0.25"
     inkscape:showpageshadow="2"
     inkscape:pageopacity="0.0"
     inkscape:pagecheckerboard="0"
     inkscape:deskcolor="#d1d1d1"
     inkscape:document-units="mm"
     inkscape:zoom="0.9742762"
     inkscape:cx="264.29877"
     inkscape:cy="708.73126"
     inkscape:window-width="1512"
     inkscape:window-height="916"
     inkscape:window-x="0"
     inkscape:window-y="38"
     inkscape:window-maximized="0"
     inkscape:current-layer="layer1" />
  <defs
     id="defs1">
    <linearGradient
       id="swatch51"
       inkscape:swatch="solid">
      <stop
         style="stop-color:#2dd4bf;stop-opacity:1;"
         offset="0"
         id="stop52" />
    </linearGradient>
  </defs>
  <g
     inkscape:label="Layer 1"
     inkscape:groupmode="layer"
     id="layer1"
     transform="translate(-22.224997,-143.40419)">
    <rect
       style="fill:#000000;fill-opacity:0.952479;stroke-width:0.264583"
       id="rect1-8"
       width="16.657"
       height="17.011599"
       x="22.224998"
       y="143.40417"
       inkscape:export-filename="SaveApp logo/SaveApp logo S negro.png"
       inkscape:export-xdpi="966.57983"
       inkscape:export-ydpi="966.57983"
       ry="0"
       rx="3" />
    <rect
       style="fill:#2dd4bf;fill-opacity:1;stroke-width:0.292692"
       id="rect4-7-9-7"
       width="2.1138885"
       height="1.7446474"
       x="29.415497"
       y="145.33722"
       inkscape:export-filename="SaveApp logo/SaveApp logo S.png"
       inkscape:export-xdpi="966.57983"
       inkscape:export-ydpi="966.57983" />
    <rect
       style="fill:#2dd4bf;fill-opacity:1;stroke-width:0.27097"
       id="rect4-1-8-8-7"
       width="2.1138885"
       height="1.4953018"
       x="29.537346"
       y="157.11627" />
    <path
       style="fill:#2dd4bf;fill-opacity:1;stroke-width:0.103984"
       d="m 28.719847,157.02784 c -1.25593,-0.43396 -2.030836,-1.33928 -2.259648,-2.63993 l -0.0686,-0.38994 h 0.968152 0.96815 l 0.185288,0.52169 c 0.234402,0.65997 0.733602,1.01565 1.593879,1.13562 1.199192,0.16723 2.343939,-0.17184 2.619113,-0.77578 0.19217,-0.42177 0.149053,-1.02685 -0.09531,-1.33751 -0.337092,-0.42854 -0.723945,-0.57629 -2.475841,-0.94557 -1.721358,-0.36284 -2.426073,-0.62636 -2.87465,-1.07493 -0.502052,-0.50205 -0.61753,-0.83568 -0.618498,-1.78685 -0.0011,-1.09858 0.281548,-1.7252 1.039442,-2.30423 0.786313,-0.60074 1.377921,-0.73807 2.99058,-0.69418 1.214353,0.0331 1.443585,0.0689 1.948781,0.30476 0.998863,0.46632 1.616223,1.27917 1.735328,2.28482 l 0.06073,0.51281 h -0.937339 -0.93734 l -0.05949,-0.29743 c -0.07975,-0.39874 -0.55457,-0.94601 -0.972156,-1.12049 -0.511564,-0.21375 -1.879301,-0.18493 -2.323457,0.0489 -0.645899,0.34012 -0.898753,1.26977 -0.482995,1.77581 0.229132,0.27889 1.004761,0.53757 2.509425,0.83693 1.672693,0.33279 2.434998,0.63089 2.938082,1.14892 0.449781,0.46315 0.598712,0.93714 0.587782,1.87065 -0.01032,0.88066 -0.178681,1.35571 -0.684808,1.93215 -0.786508,0.89579 -1.65436,1.18878 -3.506951,1.18397 -0.980723,-0.003 -1.441884,-0.05 -1.847654,-0.19024 z"
       id="path8-6-44" />
    <path
       style="fill:#2dd4bf;fill-opacity:1;stroke-width:0.103984"
       d="m 28.719847,157.02784 c -1.25593,-0.43396 -2.030836,-1.33928 -2.259648,-2.63993 l -0.0686,-0.38994 h 0.9761 0.976099 l 0.121118,0.40426 c 0.154839,0.51681 0.635516,0.9862 1.175631,1.14802 0.691531,0.20718 1.906643,0.15569 2.442051,-0.1035 1.031809,-0.49949 1.040471,-1.814 0.01545,-2.34406 -0.173622,-0.0898 -1.062919,-0.32075 -1.976215,-0.51327 -1.748311,-0.36852 -2.378152,-0.60463 -2.837096,-1.06358 -0.419732,-0.41973 -0.593685,-0.83015 -0.650187,-1.53405 -0.104963,-1.3076 0.482201,-2.37234 1.614943,-2.92849 0.574609,-0.28211 0.650793,-0.2922 2.206903,-0.2922 1.515917,0 1.64579,0.016 2.184291,0.26859 0.999932,0.46908 1.616295,1.28108 1.735328,2.28612 l 0.06073,0.51281 h -0.93734 -0.937339 l -0.05949,-0.29743 c -0.07975,-0.39874 -0.554569,-0.94601 -0.972156,-1.12049 -0.186703,-0.078 -0.667568,-0.14184 -1.068583,-0.14184 -1.255443,0 -1.905514,0.42512 -1.905514,1.24613 0,0.86383 0.378908,1.08455 2.66269,1.55106 1.711106,0.34953 2.451222,0.63912 2.952462,1.15526 0.448516,0.46185 0.598056,0.93502 0.591195,1.87065 -0.0072,0.98127 -0.277719,1.58557 -1.000836,2.23572 -0.7541,0.678 -1.502376,0.88474 -3.186417,0.8804 -0.988356,-0.003 -1.449107,-0.0498 -1.855573,-0.19024 z"
       id="path9-57-9" />
    <path
       style="fill:#2dd4bf;fill-opacity:1;stroke-width:0.103984"
       d="m 28.719847,157.02784 c -1.25593,-0.43396 -2.030836,-1.33928 -2.259648,-2.63993 l -0.0686,-0.38994 h 0.984297 0.984295 l 0.06906,0.31444 c 0.186376,0.84856 1.030256,1.34474 2.287096,1.34474 1.439378,0 2.195068,-0.53158 2.104842,-1.4806 -0.08279,-0.8708 -0.580662,-1.16409 -2.676752,-1.57685 -2.627813,-0.51747 -3.38722,-1.07964 -3.509071,-2.59766 -0.105974,-1.3202 0.47915,-2.38435 1.61412,-2.93559 0.539575,-0.26206 0.722976,-0.29271 1.96397,-0.32819 1.57839,-0.0451 2.202688,0.0858 3.002642,0.62984 0.604317,0.41096 1.068875,1.18907 1.157703,1.93909 l 0.06294,0.53143 h -0.937339 -0.93734 l -0.05774,-0.28872 c -0.154048,-0.77025 -0.960326,-1.26512 -2.067155,-1.26875 -0.804738,-0.003 -1.167776,0.11131 -1.566526,0.49171 -0.226878,0.21644 -0.285957,0.36686 -0.285957,0.72811 0,0.91513 0.230182,1.05594 2.512563,1.53704 1.8263,0.38496 2.569302,0.67336 3.074231,1.1933 0.446987,0.46028 0.597241,0.93243 0.595299,1.87065 -0.0021,0.9797 -0.268285,1.5734 -1.001117,2.23228 -0.75828,0.68176 -1.503408,0.88819 -3.19024,0.88384 -0.988357,-0.003 -1.449107,-0.0498 -1.855573,-0.19024 z"
       id="path10-6-1" />
    <path
       style="fill:#2dd4bf;fill-opacity:1;stroke-width:0.103984"
       d="m 28.719847,157.02784 c -1.25593,-0.43396 -2.030836,-1.33928 -2.259648,-2.63993 l -0.0686,-0.38994 h 0.9761 0.976099 l 0.121726,0.4063 c 0.146357,0.48849 0.693463,0.99706 1.234144,1.14721 0.505188,0.14029 1.529525,0.13991 2.036069,-8e-4 0.934054,-0.25938 1.381893,-1.19411 0.92229,-1.92502 -0.268547,-0.42707 -0.732041,-0.63072 -2.126932,-0.9345 -1.950477,-0.42477 -2.446147,-0.57519 -2.911862,-0.88367 -0.592187,-0.39225 -0.918487,-0.99104 -0.983863,-1.8055 -0.105974,-1.3202 0.47915,-2.38435 1.61412,-2.93559 0.539575,-0.26206 0.722976,-0.29271 1.96397,-0.32818 1.57839,-0.0451 2.202688,0.0858 3.002642,0.62983 0.604317,0.41096 1.068875,1.18907 1.157703,1.9391 l 0.06294,0.53142 h -0.933877 -0.933879 l -0.122322,-0.40827 c -0.226108,-0.75468 -0.955122,-1.14978 -2.123594,-1.15091 -1.112961,-0.001 -1.738389,0.47319 -1.738389,1.31821 0,0.80359 0.402646,1.01295 2.96354,1.54093 2.139188,0.44104 2.913295,0.98244 3.17885,2.22327 0.347117,1.62193 -0.560986,3.15669 -2.160016,3.65058 -0.918853,0.28381 -3.045796,0.29233 -3.847211,0.0154 z"
       id="path11-2-5" />
    <path
       style="fill:#2dd4bf;fill-opacity:1;stroke-width:0.103984"
       d="m 28.822396,157.07062 c -1.295156,-0.40477 -2.127818,-1.35041 -2.362197,-2.68271 l -0.0686,-0.38994 h 0.995158 0.995159 l 0.06474,0.32371 c 0.09579,0.47896 0.725673,1.08665 1.281848,1.23669 0.614474,0.16577 1.929167,0.0858 2.37023,-0.14411 0.658016,-0.34304 0.917062,-1.10217 0.591167,-1.73238 -0.232138,-0.44891 -0.807821,-0.69094 -2.575624,-1.08286 -1.784786,-0.39568 -2.05309,-0.48354 -2.577084,-0.84394 -0.522414,-0.35931 -0.839412,-0.97552 -0.901824,-1.75304 -0.105841,-1.31856 0.47743,-2.3805 1.614043,-2.93865 0.543856,-0.26707 0.713372,-0.2954 1.964047,-0.32827 1.578062,-0.0415 2.205275,0.0907 3.002642,0.63298 0.604317,0.41096 1.068875,1.18907 1.157703,1.93909 l 0.06294,0.53143 h -0.942075 -0.942076 l -0.06891,-0.31372 c -0.09727,-0.44286 -0.655675,-0.994 -1.144648,-1.12974 -0.969042,-0.26903 -2.066338,-0.0861 -2.487713,0.41464 -0.282573,0.33582 -0.361773,0.96873 -0.16681,1.33302 0.157287,0.29389 0.972752,0.58619 2.603746,0.93329 2.370429,0.50448 3.114358,0.97963 3.435022,2.19398 0.1416,0.53622 0.07164,1.49044 -0.147767,2.01556 -0.184502,0.44158 -0.80301,1.13373 -1.272246,1.42374 -0.196088,0.12119 -0.601004,0.28543 -0.899811,0.36498 -0.69855,0.18597 -2.981656,0.18358 -3.581067,-0.004 z"
       id="path12-7-5" />
  </g>
</svg>
